# xmcd
#
# Track frame offsets: 
#        150
#        14762
#        30385
#        43715
#        56887
#        71860
#        86077
#        101427
#        116210
#        129125
#        144232
#        160605
#        175937
#        190912
#        205707
#        221317
#        235235
#        250282
#
# Disc length: 3535 seconds
#
# Revision: 0
# Processed by: cddbd v1.5.2PL0 Copyright (c) Steve Scherf et al.
# Submitted via: ExactAudioCopyFreeDBPlugin 1.0
#
DISCID=fb0dcd12
DTITLE=服部良一 - 作曲家研究 名作選 服部良一
DYEAR=1999
DGENRE=J-POP
TTITLE0=コロムビア・ナカノ・リズムボーイズ - 山寺の和尚さん
TTITLE1=淡谷のり子 - 別れのブルース
TTITLE2=淡谷のり子 - 雨のブルース
TTITLE3=霧島昇、ミス・コロムビア - 一杯のコーヒーから
TTITLE4=ヴィック・マックスウェル、V.マックスウェル・ダンス楽団 - 夢去りぬ(Love's Gone)
TTITLE5=高峰三枝子 - 湖畔の宿
TTITLE6=小夜福子 - 小雨の丘
TTITLE7=渡辺はま子、霧島昇 - 蘇州夜曲
TTITLE8=ヴィック・マックスウェル、V.マックスウェル・ダンス楽団 - 雨のプラットホーム(待ち詫びて)I'll Be Waiting
TTITLE9=渡辺はま子 - 風は海から
TTITLE10=二葉あき子、近江俊郎 - 黒いパイプ
TTITLE11=藤山一郎 - 銀座セレナーデ
TTITLE12=笠置シヅ子 - アイレ可愛や
TTITLE13=霧島昇 - 胸の振子
TTITLE14=二葉あき子 - バラのルムバ
TTITLE15=笠置シヅ子 - 東京ブギウギ
TTITLE16=藤山一郎、奈良光枝 - 青い山脈
TTITLE17=笠置シヅ子 - 買物ブギー
EXTD=YEAR: 1999
EXTT0=
EXTT1=
EXTT2=
EXTT3=
EXTT4=
EXTT5=
EXTT6=
EXTT7=
EXTT8=
EXTT9=
EXTT10=
EXTT11=
EXTT12=
EXTT13=
EXTT14=
EXTT15=
EXTT16=
EXTT17=
PLAYORDER=
